<svg width="39" height="40" viewBox="0 0 39 40" fill="none" xmlns="http://www.w3.org/2000/svg">
<path d="M4.875 6.25H6.09375V7.5H4.875V6.25Z" fill="#185D6B"/>
<path d="M7.3125 6.25H8.53125V7.5H7.3125V6.25Z" fill="#185D6B"/>
<path d="M9.75 6.25H10.9688V7.5H9.75V6.25Z" fill="#185D6B"/>
<path d="M12.7969 12.5H5.48438C5.32276 12.5 5.16776 12.5658 5.05348 12.6831C4.9392 12.8003 4.875 12.9592 4.875 13.125V19.375C4.875 19.5408 4.9392 19.6997 5.05348 19.8169C5.16776 19.9342 5.32276 20 5.48438 20H12.7969C12.9585 20 13.1135 19.9342 13.2278 19.8169C13.342 19.6997 13.4062 19.5408 13.4062 19.375V13.125C13.4062 12.9592 13.342 12.8003 13.2278 12.6831C13.1135 12.5658 12.9585 12.5 12.7969 12.5ZM12.1875 18.75H6.09375V13.75H12.1875V18.75Z" fill="#185D6B"/>
<path d="M15.8438 12.5H18.2812V13.75H15.8438V12.5Z" fill="#185D6B"/>
<path d="M19.5 12.5H29.25V13.75H19.5V12.5Z" fill="#185D6B"/>
<path d="M15.8438 15H29.25V16.25H15.8438V15Z" fill="#185D6B"/>
<path d="M15.8438 17.5H21.9375V18.75H15.8438V17.5Z" fill="#185D6B"/>
<path d="M23.1562 17.5H26.8125V18.75H23.1562V17.5Z" fill="#185D6B"/>
<path d="M4.875 22.5H13.4062V23.75H4.875V22.5Z" fill="#185D6B"/>
<path d="M4.875 25H13.4062V26.25H4.875V25Z" fill="#185D6B"/>
<path d="M4.875 27.5H13.4062V28.75H4.875V27.5Z" fill="#185D6B"/>
<path d="M4.875 30H13.4062V31.25H4.875V30Z" fill="#185D6B"/>
<path d="M35.9531 11.9319C35.4916 11.6512 34.9644 11.5042 34.4278 11.5067C33.8913 11.5091 33.3654 11.6608 32.9062 11.9456V5.625C32.9062 5.12772 32.7136 4.65081 32.3708 4.29917C32.028 3.94754 31.563 3.75 31.0781 3.75H3.04688C2.56203 3.75 2.09704 3.94754 1.7542 4.29917C1.41136 4.65081 1.21875 5.12772 1.21875 5.625V34.375C1.21875 34.8723 1.41136 35.3492 1.7542 35.7008C2.09704 36.0525 2.56203 36.25 3.04688 36.25H31.0781C31.563 36.25 32.028 36.0525 32.3708 35.7008C32.7136 35.3492 32.9062 34.8723 32.9062 34.375V23.5944L37.0683 16.2006C37.4715 15.4827 37.5805 14.63 37.3714 13.8297C37.1624 13.0294 36.6523 12.3469 35.9531 11.9319ZM23.6712 30H17.0625V23.75H25.782L24.1739 26.6075C24.1136 26.7142 24.0856 26.8369 24.0935 26.96L24.2227 29.0225L23.6712 30ZM24.4567 31.105L25.066 30.0225L26.1215 30.6475L25.5121 31.73C25.4307 31.8724 25.2977 31.976 25.1422 32.0181C24.9866 32.0603 24.8211 32.0377 24.6817 31.9552C24.5423 31.8726 24.4405 31.7369 24.3983 31.5777C24.3561 31.4184 24.3771 31.2485 24.4567 31.105ZM26.9764 29.71L25.4298 28.7944L25.336 27.2944L28.289 29.0444L26.9764 29.71ZM29.005 28.0225L27.9496 27.3975L32.5199 19.2788L31.4645 18.6538L26.8942 26.7725L25.8387 26.1475L31.0184 16.9462L34.1872 18.8212L29.005 28.0225ZM31.6253 15.8638L31.93 15.3231L35.0988 17.1981L34.7941 17.7394L31.6253 15.8638ZM3.04688 5H31.0781C31.2397 5 31.3947 5.06585 31.509 5.18306C31.6233 5.30027 31.6875 5.45924 31.6875 5.625V8.77H2.4375V5.625C2.4375 5.45924 2.5017 5.30027 2.61598 5.18306C2.73026 5.06585 2.88526 5 3.04688 5ZM31.6875 34.375C31.6875 34.5408 31.6233 34.6997 31.509 34.8169C31.3947 34.9342 31.2397 35 31.0781 35H3.04688C2.88526 35 2.73026 34.9342 2.61598 34.8169C2.5017 34.6997 2.4375 34.5408 2.4375 34.375V10.02H31.6875V13.26L26.4859 22.5H16.4531C16.2915 22.5 16.1365 22.5658 16.0222 22.6831C15.908 22.8003 15.8438 22.9592 15.8438 23.125V30.625C15.8438 30.7908 15.908 30.9497 16.0222 31.0669C16.1365 31.1842 16.2915 31.25 16.4531 31.25H23.1684C23.1331 31.6741 23.2395 32.098 23.4702 32.4519C23.7008 32.8058 24.0421 33.0686 24.4377 33.1972C24.8334 33.3258 25.2599 33.3125 25.6472 33.1594C26.0345 33.0063 26.3595 32.7226 26.5687 32.355L27.3902 30.895L29.1939 29.98C29.3021 29.9247 29.3919 29.8377 29.4517 29.73L31.6875 25.7594V34.375ZM36.0141 15.5756L35.7094 16.1169L32.5406 14.2419L32.8453 13.7006C33.0877 13.2696 33.4872 12.9551 33.9557 12.8262C34.4243 12.6972 34.9235 12.7645 35.3438 13.0131C35.764 13.2618 36.0706 13.6714 36.1964 14.152C36.3221 14.6326 36.2565 15.1446 36.0141 15.5756Z" fill="#185D6B"/>
</svg>
