<svg width="39" height="40" viewBox="0 0 39 40" fill="none" xmlns="http://www.w3.org/2000/svg">
<g clip-path="url(#clip0_486_195)">
<path d="M38.35 34.6668H37.7V14.0002C37.7 13.632 37.409 13.3335 37.05 13.3335H1.95C1.59104 13.3335 1.3 13.632 1.3 14.0002V34.6668H0.65C0.291037 34.6668 0 34.9653 0 35.3335V36.6668C0.0021125 38.5068 1.456 39.998 3.25 40.0002H35.75C37.544 39.998 38.9979 38.5068 39 36.6668V35.3335C39 34.9653 38.709 34.6668 38.35 34.6668ZM2.6 14.6668H36.4V34.6668H24.7C24.5275 34.6678 24.3622 34.7382 24.2398 34.8628L23.1309 36.0002H15.8691L14.7602 34.8628C14.6378 34.7382 14.4725 34.6678 14.3 34.6668H2.6V14.6668ZM37.7 36.6668C37.7 37.7714 36.827 38.6668 35.75 38.6668H3.25C2.17303 38.6668 1.3 37.7714 1.3 36.6668V36.0002H14.0309L15.1404 37.1382C15.2623 37.2632 15.4276 37.3335 15.6 37.3335H23.4C23.5724 37.3335 23.7377 37.2632 23.8596 37.1382L24.9691 36.0002H37.7V36.6668Z" fill="#185D6B"/>
<path d="M14.3507 28.8568L22.1864 21.4895L29.9864 26.1488L35.75 20.2362V15.3335H3.25V30.6968L9.76625 25.4968L14.3507 28.8568ZM4.55 27.9702V16.6668H34.45V19.6842L29.7758 24.4795L22.0135 19.8442L14.2493 27.1435L9.73375 23.8355L4.55 27.9702Z" fill="#185D6B"/>
<path d="M9.1002 12.6667C9.45916 12.6667 9.7502 12.3682 9.7502 12V10.5647L12.0089 10.178C12.2685 10.1333 12.4761 9.93242 12.5348 9.66933C12.7095 8.88517 13.0112 8.1365 13.4272 7.45467C13.5676 7.2255 13.5588 6.932 13.4051 6.712L12.0746 4.80467L13.1347 3.71733L14.9944 5.082C15.2089 5.23958 15.495 5.24858 15.7185 5.10467C16.3826 4.67817 17.1115 4.36875 17.8752 4.18933C18.1317 4.12908 18.3275 3.91617 18.3711 3.65L18.7507 1.33333H20.2496L20.6266 3.65C20.6703 3.91617 20.8661 4.12908 21.1226 4.18933C21.8872 4.3685 22.6171 4.67792 23.2819 5.10467C23.5053 5.24858 23.7915 5.23958 24.006 5.082L25.8656 3.71733L26.9258 4.80467L25.5952 6.712C25.4416 6.932 25.4328 7.22542 25.5731 7.45467C25.989 8.13567 26.2907 8.88342 26.4656 9.66667C26.5243 9.92975 26.7319 10.1306 26.9914 10.1753L29.2502 10.562V12C29.2502 12.3682 29.5412 12.6667 29.9002 12.6667C30.2592 12.6667 30.5502 12.3682 30.5502 12V10C30.5501 9.67433 30.3206 9.39642 30.0074 9.34267L27.6252 8.93333C27.4512 8.30708 27.2083 7.70317 26.9011 7.13333L28.3057 5.11933C28.4906 4.854 28.4612 4.49042 28.2362 4.26L26.3967 2.37267C26.1719 2.14208 25.8174 2.11225 25.5588 2.302L23.5952 3.74467C23.0397 3.42892 22.4509 3.17908 21.8402 3L21.4417 0.554667C21.3884 0.234001 21.1173 -0.000416112 20.8002 5.54575e-07H18.2002C17.8827 8.38879e-05 17.6117 0.235501 17.5593 0.556667L17.1602 3C16.5496 3.17842 15.9608 3.42758 15.4052 3.74267L13.4435 2.304C13.185 2.11425 12.8305 2.14408 12.6056 2.37467L10.7655 4.262C10.5407 4.49258 10.5116 4.85617 10.6966 5.12133L12.1012 7.13333C11.7934 7.70308 11.5498 8.307 11.3752 8.93333L8.991 9.342C8.67835 9.39667 8.44979 9.67475 8.4502 10V12C8.4502 12.3682 8.74123 12.6667 9.1002 12.6667Z" fill="#185D6B"/>
<path d="M23.3998 11.3333C23.3998 11.7015 23.6908 12 24.0498 12C24.4088 12 24.6998 11.7015 24.6998 11.3333C24.6998 8.38783 22.3717 6 19.4998 6C16.6279 6 14.2998 8.38783 14.2998 11.3333C14.2998 11.7015 14.5908 12 14.9498 12C15.3088 12 15.5998 11.7015 15.5998 11.3333C15.5998 9.12417 17.3459 7.33333 19.4998 7.33333C21.6537 7.33333 23.3998 9.12417 23.3998 11.3333Z" fill="#185D6B"/>
<path d="M16.9004 11.3332C16.9004 11.7013 17.1914 11.9998 17.5504 11.9998C17.9094 11.9998 18.2004 11.7013 18.2004 11.3332C18.2004 10.5968 18.7824 9.99984 19.5004 9.99984C20.2184 9.99984 20.8004 10.5968 20.8004 11.3332C20.8004 11.7013 21.0914 11.9998 21.4504 11.9998C21.8094 11.9998 22.1004 11.7013 22.1004 11.3332C22.1004 9.86042 20.9363 8.6665 19.5004 8.6665C18.0645 8.6665 16.9004 9.86042 16.9004 11.3332Z" fill="#185D6B"/>
<path d="M35.75 33.3332V32.6665V22.6665H34.45V32.6665H33.15V25.3332H31.85V32.6665H30.55V27.3332H29.25V32.6665H27.95V25.9998H26.65V32.6665H25.35V24.6665H24.05V32.6665H22.75V23.3332H21.45V32.6665H20.15V25.9998H18.85V32.6665H17.55V28.6665H16.25V32.6665H14.95V29.9998H13.65V32.6665H12.35V28.6665H11.05V32.6665H9.75V27.9998H8.45V32.6665H7.15V29.9998H5.85V32.6665H4.55V31.9998H3.25V32.6665V33.3332V33.9998H35.75V33.3332Z" fill="#185D6B"/>
</g>
<defs>
<clipPath id="clip0_486_195">
<rect width="39" height="40" fill="white"/>
</clipPath>
</defs>
</svg>
