<svg width="38" height="40" viewBox="0 0 38 40" fill="none" xmlns="http://www.w3.org/2000/svg">
<g clip-path="url(#clip0_486_224)">
<path d="M24.2416 10.3953C25.2647 10.3953 26.0971 9.51917 26.0971 8.44222C26.0971 7.36526 25.2647 6.48901 24.2416 6.48901C23.2185 6.48901 22.3861 7.36526 22.3861 8.44222C22.3861 8.88206 22.5251 9.28831 22.7591 9.61519L19.7105 14.0996C19.5285 14.0367 19.3345 14.0022 19.1327 14.0022C18.6452 14.0022 18.2012 14.2015 17.8698 14.5264L15.8377 13.3126C15.8648 13.1801 15.8794 13.0428 15.8794 12.9019C15.8794 11.825 15.047 10.9488 14.0239 10.9488C13.0008 10.9488 12.1684 11.825 12.1684 12.9019C12.1684 13.0428 12.183 13.1801 12.2101 13.3126L10.178 14.5264C9.84656 14.2015 9.40258 14.0023 8.91504 14.0023C7.89193 14.0023 7.05957 14.8785 7.05957 15.9555C7.05957 17.0325 7.89193 17.9087 8.91504 17.9087C9.93814 17.9087 10.7705 17.0325 10.7705 15.9555C10.7705 15.8146 10.756 15.6773 10.7289 15.5448L12.7609 14.331C13.0924 14.6559 13.5363 14.8552 14.0239 14.8552C14.5114 14.8552 14.9553 14.6559 15.2869 14.3311L17.3189 15.5449C17.2918 15.6774 17.2773 15.8147 17.2773 15.9556C17.2773 17.0325 18.1096 17.9088 19.1327 17.9088C20.1559 17.9088 20.9883 17.0325 20.9883 15.9556C20.9883 15.5157 20.8493 15.1093 20.6153 14.7825L23.6639 10.298C23.8457 10.3608 24.0399 10.3953 24.2416 10.3953ZM24.2416 7.66089C24.6508 7.66089 24.9838 8.01136 24.9838 8.44222C24.9838 8.873 24.6508 9.22347 24.2416 9.22347C23.8323 9.22347 23.4994 8.873 23.4994 8.44222C23.4993 8.01136 23.8323 7.66089 24.2416 7.66089ZM8.91482 16.7367C8.50557 16.7367 8.17263 16.3862 8.17263 15.9553C8.17263 15.5245 8.50557 15.174 8.91482 15.174C9.32406 15.174 9.657 15.5245 9.657 15.9553C9.657 16.3862 9.32406 16.7367 8.91482 16.7367ZM14.0237 13.6832C13.6145 13.6832 13.2816 13.3327 13.2816 12.9018C13.2816 12.471 13.6145 12.1206 14.0237 12.1206C14.433 12.1206 14.7659 12.471 14.7659 12.9018C14.766 13.3327 14.433 13.6832 14.0237 13.6832ZM19.1327 16.7367C18.7234 16.7367 18.3905 16.3862 18.3905 15.9553C18.3905 15.5245 18.7234 15.174 19.1327 15.174C19.542 15.174 19.8749 15.5245 19.8749 15.9553C19.8749 16.3862 19.5419 16.7367 19.1327 16.7367Z" fill="#185D6B"/>
<path d="M31.0825 29.4501H27.1871H5.96926H1.57455C1.3202 29.4501 1.11328 29.2323 1.11328 28.9646V4.79121C1.11328 4.52348 1.3202 4.30566 1.57455 4.30566H4.19863C4.50604 4.30566 4.75527 4.0434 4.75527 3.71973C4.75527 3.39605 4.50604 3.13379 4.19863 3.13379H1.57455C0.70634 3.13379 0 3.8773 0 4.79121V28.9646C0 29.8785 0.70634 30.622 1.57455 30.622H5.41262V31.9115C5.41262 32.6461 5.9804 33.2438 6.67828 33.2438H12.2502L9.62728 38.6343C9.48716 38.9223 9.59529 39.2754 9.86894 39.4229C9.95014 39.4668 10.0368 39.4875 10.1222 39.4875C10.3245 39.4875 10.5196 39.3711 10.6181 39.1685L13.501 33.2438H19.6553L22.5382 39.1685C22.6368 39.3711 22.8318 39.4875 23.0341 39.4875C23.1195 39.4875 23.2062 39.4666 23.2874 39.4229C23.561 39.2754 23.6692 38.9223 23.529 38.6343L20.9062 33.2438H26.4781C27.1759 33.2438 27.7437 32.6462 27.7437 31.9115V30.622H31.0825C31.3899 30.622 31.6392 30.3597 31.6392 30.0361C31.6392 29.7124 31.3899 29.4501 31.0825 29.4501ZM26.6304 31.9115C26.6304 32 26.5621 32.0719 26.4781 32.0719H6.67828C6.59426 32.0719 6.52591 32 6.52591 31.9115V30.622H26.6304V31.9115Z" fill="#185D6B"/>
<path d="M6.4248 4.3058H14.045H19.1105H31.5813C31.8357 4.3058 32.0426 4.52361 32.0426 4.79135V10.3625C32.0426 10.6862 32.2918 10.9485 32.5992 10.9485C32.9067 10.9485 33.1559 10.6862 33.1559 10.3625V4.79135C33.1559 3.87744 32.4495 3.13393 31.5813 3.13393H19.6672V1.98221C19.6672 1.17166 19.0407 0.512207 18.2706 0.512207H14.8849C14.1149 0.512207 13.4884 1.17166 13.4884 1.98221V3.13393H6.4248C6.11739 3.13393 5.86816 3.39619 5.86816 3.71986C5.86816 4.04353 6.11739 4.3058 6.4248 4.3058ZM14.6016 1.98221C14.6016 1.81783 14.7287 1.68408 14.8849 1.68408H18.2706C18.4268 1.68408 18.5539 1.81783 18.5539 1.98221V3.13393H14.6017V1.98221H14.6016Z" fill="#185D6B"/>
<path d="M7.78516 20.9041C7.47774 20.9041 7.22852 21.1663 7.22852 21.49V26.6675C7.22852 26.9912 7.47774 27.2534 7.78516 27.2534H10.0434C10.3508 27.2534 10.6 26.9912 10.6 26.6675V21.49C10.6 21.1663 10.3508 20.9041 10.0434 20.9041H7.78516ZM9.48677 26.0816H8.34179V22.076H9.48677V26.0816Z" fill="#185D6B"/>
<path d="M12.8945 17.9099C12.5871 17.9099 12.3379 18.1722 12.3379 18.4958V26.6678C12.3379 26.9915 12.5871 27.2537 12.8945 27.2537H15.1528C15.4602 27.2537 15.7094 26.9915 15.7094 26.6678V18.4958C15.7094 18.1722 15.4602 17.9099 15.1528 17.9099H12.8945ZM14.5962 26.0819H13.4512V19.0818H14.5962V26.0819Z" fill="#185D6B"/>
<path d="M18.0039 20.9041C17.6965 20.9041 17.4473 21.1663 17.4473 21.49V26.6675C17.4473 26.9912 17.6965 27.2534 18.0039 27.2534H20.2622C20.5696 27.2534 20.8188 26.9912 20.8188 26.6675V21.49C20.8188 21.1663 20.5696 20.9041 20.2622 20.9041H18.0039ZM19.7055 26.0816H18.5605V22.076H19.7055V26.0816Z" fill="#185D6B"/>
<path d="M23.1123 24.3618C22.8049 24.3618 22.5557 24.6241 22.5557 24.9478V26.6678C22.5557 26.9915 22.8049 27.2538 23.1123 27.2538H25.3706C25.678 27.2538 25.9272 26.9915 25.9272 26.6678C25.9272 26.3442 25.678 26.0819 25.3706 26.0819H23.6689V24.9478C23.6689 24.6241 23.4197 24.3618 23.1123 24.3618Z" fill="#185D6B"/>
<path d="M37.7166 30.0013L34.5232 24.179C35.3322 23.2712 35.9214 22.1621 36.2361 20.9258C36.7391 18.95 36.4809 16.8861 35.5093 15.1146C33.5034 11.4573 29.045 10.2001 25.5708 12.3114C22.0966 14.4227 20.902 19.1158 22.9079 22.7729C23.8795 24.5444 25.4485 25.8116 27.3255 26.3411C27.9524 26.5179 28.5884 26.6054 29.2203 26.6054C29.7727 26.6054 30.3218 26.5385 30.8589 26.4061L34.0516 32.2286C34.443 32.9425 35.1556 33.3419 35.8875 33.3418C36.2462 33.3418 36.6096 33.2458 36.942 33.044C37.5949 32.6473 38.0005 31.9077 38.0005 31.1138C38.0005 30.7248 37.9024 30.3402 37.7166 30.0013ZM27.6136 25.2092C26.0238 24.7608 24.6949 23.6874 23.8719 22.1869C22.173 19.0894 23.1849 15.1146 26.1274 13.3262C27.0954 12.7379 28.1533 12.4586 29.1981 12.4586C31.3293 12.4586 33.4051 13.6221 34.5451 15.7005C35.368 17.201 35.5867 18.949 35.1607 20.6226C34.7346 22.2961 33.7149 23.6948 32.2895 24.5611C30.8641 25.4275 29.2036 25.6575 27.6136 25.2092ZM36.3856 32.029C35.9067 32.32 35.2922 32.1468 35.0159 31.6429L31.9441 26.041C32.2519 25.9087 32.5534 25.754 32.8463 25.5761C33.1394 25.3979 33.417 25.1997 33.6798 24.985L36.7524 30.5871C36.8406 30.7481 36.8872 30.9303 36.8872 31.1139C36.8872 31.4903 36.695 31.841 36.3856 32.029Z" fill="#185D6B"/>
<path d="M34.2553 20.5945C34.6482 19.262 34.5547 17.8355 33.9917 16.5777C33.8606 16.2848 33.529 16.1594 33.2509 16.2973C32.9728 16.4352 32.8536 16.7843 32.9846 17.077C33.4287 18.0692 33.5024 19.1949 33.1921 20.247C32.8801 21.3048 32.206 22.1925 31.2941 22.7467C30.3291 23.3333 29.2047 23.4889 28.1285 23.1854C27.0522 22.8818 26.1525 22.1552 25.5954 21.1394C24.4453 19.0424 25.1303 16.3515 27.1224 15.1408C28.5789 14.2557 30.3865 14.374 31.7277 15.4421C31.973 15.6374 32.322 15.5866 32.5075 15.3284C32.693 15.0704 32.6446 14.7029 32.3994 14.5077C30.7005 13.1545 28.4105 13.0047 26.5657 14.1259C25.3431 14.8688 24.4686 16.0685 24.1033 17.5038C23.7379 18.9391 23.9254 20.4384 24.6312 21.7252C25.3371 23.0122 26.4768 23.9327 27.8403 24.3173C28.2956 24.4458 28.7577 24.5093 29.2168 24.5093C30.1325 24.5093 31.0364 24.2565 31.8506 23.7616C33.006 23.0595 33.86 21.9348 34.2553 20.5945Z" fill="#185D6B"/>
</g>
<defs>
<clipPath id="clip0_486_224">
<rect width="38" height="40" fill="white"/>
</clipPath>
</defs>
</svg>
