<svg width="39" height="40" viewBox="0 0 39 40" fill="none" xmlns="http://www.w3.org/2000/svg">
<g clip-path="url(#clip0_486_205)">
<path d="M34.4501 10.0011V3.33461C34.4501 2.96646 34.1591 2.66797 33.8001 2.66797H31.2002V4.00126H33.1501V10.0011H34.4501Z" fill="#185D6B"/>
<path d="M4.55078 20.0007V36.6668C4.55078 37.035 4.84181 37.3335 5.20076 37.3335H31.1999C31.5589 37.3335 31.8499 37.035 31.8499 36.6668V32.0003H30.5499V36.0002H5.85074V20.0007H4.55078Z" fill="#185D6B"/>
<path d="M25.6192 0.0684385C25.5989 0.0589987 25.5796 0.0537905 25.5586 0.0463039C25.5043 0.0270988 25.4479 0.0157059 25.3904 0.0117998C25.3761 0.00919571 25.3637 0.00170898 25.3501 0.00170898H5.20076C4.84181 0.00170898 4.55078 0.300202 4.55078 0.668353V2.00164H5.85074V1.335H24.7001V6.66815C24.7001 7.0363 24.9912 7.3348 25.3501 7.3348H30.5499V10.668H31.8499V6.66815C31.8499 6.65416 31.8429 6.64146 31.842 6.62681C31.8385 6.5679 31.827 6.50995 31.8083 6.45429C31.801 6.43281 31.7959 6.41295 31.7867 6.39212C31.7553 6.31953 31.7112 6.25345 31.6569 6.19681L25.8071 0.197015C25.7522 0.143306 25.6887 0.0996875 25.6192 0.0684385ZM29.6308 6.00151H26.0001V2.27767L29.6308 6.00151Z" fill="#185D6B"/>
<path d="M14.9512 28.0004V33.3335C14.9512 33.7017 15.2422 34.0002 15.6012 34.0002H24.0509V32.6669H16.2511V28.667H19.501V27.3337H15.6012C15.2422 27.3337 14.9512 27.6322 14.9512 28.0004Z" fill="#185D6B"/>
<path d="M17.5508 30.0002H21.4506V31.3335H17.5508V30.0002Z" fill="#185D6B"/>
<path d="M34.4499 11.3342C31.9385 11.3375 29.9032 13.425 29.9001 16.0007V16.0675L26.5851 19.6565L24.5098 17.528C24.2559 17.2676 23.8446 17.2676 23.5907 17.528L17.7409 23.5278C17.4873 23.7882 17.4873 24.2101 17.7409 24.4705L26.8406 33.8035C27.0945 34.0636 27.5058 34.0636 27.7597 33.8035L29.7096 31.8036L33.15 28.2764V38.6667H7.80078V40H33.7999C34.1589 40 34.4499 39.7015 34.4499 39.3333V23.3338H33.15V26.391L30.8842 24.0672L34.3848 20.6673H34.4499C36.9629 20.6673 38.9998 18.5781 38.9998 16.0007C38.9998 13.4234 36.9629 11.3342 34.4499 11.3342ZM27.3001 32.3908L19.1196 24.0005L20.1504 22.9432L28.331 31.3336L27.3001 32.3908ZM32.2308 27.3337L29.2501 30.3909L21.0695 22.0005L24.0502 18.9434L25.6907 20.6259L24.2283 22.2085C23.9839 22.4712 23.9896 22.8859 24.2407 23.1418L27.4906 26.475C27.7394 26.7302 28.1412 26.7357 28.3967 26.4877L29.9404 24.9878L32.2308 27.3337ZM34.4499 19.334H34.1249C33.9586 19.334 33.7987 19.3994 33.6777 19.5166L27.9625 25.0672L25.6101 22.6545L31.0245 16.7927C31.1381 16.6684 31.2006 16.5043 31.2 16.3341V16.0007C31.2 14.16 32.6552 12.6675 34.4499 12.6675C36.2446 12.6675 37.6998 14.16 37.6998 16.0007C37.6998 17.8415 36.2446 19.334 34.4499 19.334Z" fill="#185D6B"/>
<path d="M12.3506 19.334H18.8504V20.6673H12.3506V19.334Z" fill="#185D6B"/>
<path d="M8.45117 22.0005H16.2509V23.3338H8.45117V22.0005Z" fill="#185D6B"/>
<path d="M14.3008 16.6675H22.1005V18.0008H14.3008V16.6675Z" fill="#185D6B"/>
<path d="M8.45117 24.6672H12.351V26.0005H8.45117V24.6672Z" fill="#185D6B"/>
<path d="M8.45117 27.3337H13.651V28.667H8.45117V27.3337Z" fill="#185D6B"/>
<path d="M8.45117 30.0002H13.651V31.3335H8.45117V30.0002Z" fill="#185D6B"/>
<path d="M8.45117 32.6667H13.651V34H8.45117V32.6667Z" fill="#185D6B"/>
<path d="M8.45117 19.334H11.0511V20.6673H8.45117V19.334Z" fill="#185D6B"/>
<path d="M13.6514 24.6672H16.2513V26.0005H13.6514V24.6672Z" fill="#185D6B"/>
<path d="M16.251 13.3342H22.7508V14.6675H16.251V13.3342Z" fill="#185D6B"/>
<path d="M7.80086 18.6674C11.9987 18.6625 15.44 15.2505 15.587 10.9476C15.938 11.249 16.3915 11.3945 16.8472 11.3515C17.1821 11.763 17.6778 12.0009 18.2005 12.0009C18.7232 12.0009 19.219 11.763 19.5538 11.3515C20.0743 11.3994 20.5884 11.208 20.9579 10.8291C21.3273 10.4502 21.5139 9.92288 21.4672 9.38904C21.8687 9.04563 22.1004 8.53718 22.1004 8.00107C22.1004 7.46495 21.8687 6.95651 21.4672 6.61309C21.5139 6.07926 21.3273 5.55193 20.9579 5.17304C20.5884 4.79414 20.0743 4.60274 19.5538 4.65059C19.219 4.23915 18.7232 4.0012 18.2005 4.0012C17.6778 4.0012 17.1821 4.23915 16.8472 4.65059C16.3268 4.60274 15.8126 4.79414 15.4432 5.17304C15.0738 5.55193 14.8872 6.07926 14.9338 6.61309C14.8376 6.69447 14.7504 6.78659 14.6739 6.88782C12.8706 3.43807 8.89865 1.8333 5.28601 3.09465C1.67336 4.35633 -0.519054 8.11337 0.104583 11.9749C0.72822 15.8364 3.98478 18.668 7.80086 18.6674ZM15.9034 7.56098C16.0767 7.49783 16.2157 7.36242 16.2861 7.18827C16.3563 7.01412 16.3515 6.81751 16.2728 6.64727C16.1884 6.46824 16.2236 6.25438 16.3604 6.11376C16.4975 5.97347 16.706 5.93733 16.8806 6.02392C17.0466 6.10465 17.2383 6.10953 17.408 6.03759C17.5778 5.96533 17.7099 5.82276 17.7714 5.64503C17.8359 5.45851 18.0076 5.33384 18.2005 5.33384C18.3935 5.33384 18.5652 5.45851 18.6296 5.64503C18.6912 5.82276 18.8232 5.96533 18.993 6.03759C19.1628 6.10953 19.3545 6.10465 19.5208 6.02392C19.695 5.93733 19.9035 5.97347 20.0406 6.11376C20.1774 6.25438 20.2127 6.46824 20.1282 6.64727C20.0495 6.81751 20.0448 7.01412 20.1149 7.18827C20.1854 7.36242 20.3244 7.49783 20.4977 7.56098C20.6795 7.62706 20.8011 7.80316 20.8011 8.00107C20.8011 8.19898 20.6795 8.37508 20.4977 8.44116C20.3244 8.50431 20.1854 8.63972 20.1149 8.81387C20.0448 8.98802 20.0495 9.18462 20.1282 9.35519C20.2181 9.53325 20.1816 9.75101 20.0387 9.88838C19.9042 10.0336 19.6928 10.0707 19.5186 9.9805C19.3526 9.89944 19.1609 9.89456 18.9911 9.96682C18.8213 10.0388 18.6893 10.1813 18.6277 10.3591C18.5633 10.5456 18.3913 10.6703 18.1986 10.6703C18.0057 10.6703 17.834 10.5456 17.7695 10.3591C17.708 10.181 17.5756 10.0384 17.4055 9.9665C17.3265 9.9333 17.2421 9.91605 17.1567 9.91572C17.0602 9.91605 16.965 9.93883 16.8783 9.98245C16.7041 10.0687 16.4956 10.0326 16.3585 9.89228C16.2217 9.75166 16.1865 9.5378 16.2709 9.3591C16.3496 9.18886 16.3544 8.99225 16.2842 8.8181C16.2138 8.64363 16.0748 8.50821 15.9015 8.44506C15.7196 8.37931 15.5981 8.20289 15.5981 8.00497C15.5981 7.80739 15.7196 7.63096 15.9015 7.56521L15.9034 7.56098ZM7.80086 4.0012C11.3907 4.0012 14.3007 6.9858 14.3007 10.6676C14.3007 14.3495 11.3907 17.3341 7.80086 17.3341C4.21106 17.3341 1.30108 14.3495 1.30108 10.6676C1.30489 6.98743 4.21265 4.00511 7.80086 4.0012Z" fill="#185D6B"/>
<path d="M4.74193 14.4722C4.99583 14.7322 5.40714 14.7322 5.66104 14.4722L12.1608 7.80571L11.2417 6.86304L5.20149 13.0581L3.7111 11.5295L2.79199 12.4722L4.74193 14.4722Z" fill="#185D6B"/>
</g>
<defs>
<clipPath id="clip0_486_205">
<rect width="39" height="40" fill="white"/>
</clipPath>
</defs>
</svg>
