<svg width="39" height="40" viewBox="0 0 39 40" fill="none" xmlns="http://www.w3.org/2000/svg">
<g clip-path="url(#clip0_486_235)">
<path d="M10.4327 25.1745C10.7969 24.9591 10.9216 24.4809 10.7115 24.1073C10.5012 23.7341 10.0352 23.6059 9.671 23.8214C9.30681 24.0371 9.18184 24.5153 9.3922 24.8886C9.60227 25.2621 10.0685 25.3903 10.4327 25.1745Z" fill="#E04050"/>
<path d="M7.3113 30.5668L11.1473 37.3817C11.975 38.8538 13.8371 39.3989 15.3096 38.5258C16.7667 37.6621 17.2675 35.7526 16.4246 34.257L14.1394 30.1969L16.1184 29.025C16.4826 28.809 16.6075 28.3314 16.3972 27.9578L15.4066 26.1982C15.5248 26.1747 16.3014 26.0184 29.9965 23.263C31.6896 23.1687 32.7039 21.2696 31.8488 19.7513L29.3172 15.2543L30.935 12.7411C31.0939 12.494 31.1034 12.1763 30.9591 11.9199L29.4357 9.21362C29.2913 8.95728 29.0173 8.80713 28.7302 8.82452L25.7996 9.00488L22.9893 4.01221C22.5823 3.28894 21.853 2.85101 21.0389 2.84064C21.0291 2.84033 21.0196 2.84033 21.0097 2.84033C20.223 2.84033 19.5089 3.24194 19.0858 3.92096L9.13526 16.9221L2.6663 20.7526C0.121982 22.2587 -0.759351 25.6064 0.714694 28.223C2.06139 30.6156 4.90058 31.5568 7.3113 30.5668ZM15.1055 35.0385C15.5263 35.785 15.2772 36.7402 14.5473 37.1726C13.8151 37.6069 12.8826 37.3401 12.4666 36.6007L8.65799 29.834L11.2966 28.2715C15.7045 36.103 15.0347 34.9131 15.1055 35.0385ZM13.3777 28.8434L12.616 27.4903L13.9353 26.709L14.697 28.0622L13.3777 28.8434ZM28.3517 10.413L29.4044 12.2831L28.4657 13.7412L26.6512 10.5176L28.3517 10.413ZM20.3599 4.77759C20.5643 4.43457 20.8886 4.39917 21.0202 4.40283C21.1502 4.40436 21.4742 4.44586 21.6697 4.79315L30.5294 20.5326C30.8181 21.045 30.4673 21.6892 29.8885 21.7039C29.7847 21.7063 29.7368 21.7255 29.4708 21.7765L20.099 5.12762C20.2956 4.86823 20.3209 4.8432 20.3599 4.77759ZM19.0852 6.45209L27.8905 22.0945L14.6015 24.7678L10.5608 17.5898L19.0852 6.45209ZM2.03402 27.4418C1.69957 26.8482 1.52283 26.1744 1.52283 25.4926C1.52283 24.0992 2.25301 22.8016 3.42802 22.1058L9.36496 18.5901L13.1736 25.3559L7.23661 28.8718C5.41771 29.9485 3.08406 29.307 2.03402 27.4418Z" fill="#E04050"/>
<path d="M8.07282 25.67C7.86245 25.2965 7.3965 25.1683 7.0323 25.3841L5.71298 26.1653C5.34938 26.3808 4.88253 26.2523 4.67246 25.8794C4.46209 25.5058 3.99614 25.3777 3.63194 25.5934C3.26774 25.8092 3.14277 26.2871 3.35314 26.6606C3.98007 27.7745 5.37854 28.1673 6.4747 27.5185L7.79402 26.7372C8.15822 26.5215 8.28319 26.0439 8.07282 25.67Z" fill="#E04050"/>
<path d="M37.8684 4.51144L33.6239 6.93392C33.2564 7.14388 33.124 7.61965 33.3287 7.99654C33.5328 8.37313 33.9964 8.50954 34.3648 8.29928L38.609 5.87679C38.9767 5.66683 39.1089 5.19106 38.9041 4.81417C38.6997 4.43697 38.2359 4.30147 37.8684 4.51144Z" fill="#E04050"/>
<path d="M37.4228 12.6029L34.4798 11.7942C34.0733 11.6825 33.6556 11.9297 33.5466 12.3465C33.4377 12.7634 33.6791 13.1916 34.0855 13.3033L37.0288 14.112C37.4377 14.2246 37.8533 13.9734 37.9617 13.5596C38.0706 13.1427 37.8292 12.7143 37.4228 12.6029Z" fill="#E04050"/>
<path d="M30.0265 1.67295L29.2371 4.69175C29.1282 5.10862 29.3692 5.53678 29.7757 5.64878C30.1818 5.76017 30.5996 5.51359 30.7088 5.09641L31.4978 2.07761C31.6067 1.66074 31.3657 1.23228 30.9593 1.12058C30.5531 1.00889 30.1354 1.25608 30.0265 1.67295Z" fill="#E04050"/>
</g>
<defs>
<clipPath id="clip0_486_235">
<rect width="39" height="40" fill="white"/>
</clipPath>
</defs>
</svg>
